<?xml version="1.0" standalone="no"?><!DOCTYPE svg PUBLIC "-//W3C//DTD SVG 1.1//EN" "http://www.w3.org/Graphics/SVG/1.1/DTD/svg11.dtd"><svg t="1619592980741" class="icon" viewBox="0 0 1024 1024" version="1.1" xmlns="http://www.w3.org/2000/svg" p-id="6716" xmlns:xlink="http://www.w3.org/1999/xlink" width="200" height="200"><defs><style type="text/css"></style></defs><path d="M822.741333 618.666667a42.666667 42.666667 0 0 1 33.045334 69.674666l-67.2 82.197334V908.8l-63.274667-16.981333v-145.045334L777.749333 682.666667H627.626667L682.666667 746.453333v133.909334l-63.765334-17.130667V770.56l-70.165333-81.322667A42.666667 42.666667 0 0 1 581.034667 618.666667h241.706666z m-604.181333 150.357333l146.602667-171.050667a275.690667 275.690667 0 0 0 86.272 35.413334L576 778.666667V874.666667H267.157333a64 64 0 0 1-48.597333-105.642667l146.602667-171.050667zM512 149.333333c117.824 0 213.333333 95.509333 213.333333 213.333334s-95.509333 213.333333-213.333333 213.333333-213.333333-95.509333-213.333333-213.333333S394.176 149.333333 512 149.333333z" p-id="6717"></path></svg>