<?xml version="1.0" standalone="no"?><!DOCTYPE svg PUBLIC "-//W3C//DTD SVG 1.1//EN" "http://www.w3.org/Graphics/SVG/1.1/DTD/svg11.dtd"><svg t="1619594629932" class="icon" viewBox="0 0 1024 1024" version="1.1" xmlns="http://www.w3.org/2000/svg" p-id="7508" xmlns:xlink="http://www.w3.org/1999/xlink" width="200" height="200"><defs><style type="text/css"></style></defs><path d="M874.666667 170.666667v64h-42.666667v426.666666c0 35.349333-30.72 64-68.565333 64h-149.354667l113.749333 128h-85.632l-113.770666-128h-11.562667l-113.749333 128h-85.610667l113.728-128h-170.666667C222.72 725.333333 192 696.682667 192 661.333333V234.666667H149.333333V170.666667h725.333334zM405.333333 469.333333h-64v64h64v-64z m277.333334 0H448v64h234.666667v-64z m0-106.666666H448v64h234.666667v-64z m-277.333334 0h-64v64h64v-64z" p-id="7509"></path></svg>