<?xml version="1.0" standalone="no"?><!DOCTYPE svg PUBLIC "-//W3C//DTD SVG 1.1//EN" "http://www.w3.org/Graphics/SVG/1.1/DTD/svg11.dtd"><svg t="1619593213325" class="icon" viewBox="0 0 1024 1024" version="1.1" xmlns="http://www.w3.org/2000/svg" p-id="7112" xmlns:xlink="http://www.w3.org/1999/xlink" width="200" height="200"><defs><style type="text/css"></style></defs><path d="M644.8 581.568l160.64 187.456A64 64 0 0 1 756.842667 874.666667H544v-192h-64v192h-212.842667a64 64 0 0 1-48.597333-105.642667l160.661333-187.434667A254.805333 254.805333 0 0 0 512 618.666667c48.64 0 94.08-13.546667 132.8-37.098667zM512 149.333333c117.824 0 213.333333 95.509333 213.333333 213.333334s-95.509333 213.333333-213.333333 213.333333-213.333333-95.509333-213.333333-213.333333S394.176 149.333333 512 149.333333z" p-id="7113"></path></svg>