<?xml version="1.0" standalone="no"?><!DOCTYPE svg PUBLIC "-//W3C//DTD SVG 1.1//EN" "http://www.w3.org/Graphics/SVG/1.1/DTD/svg11.dtd"><svg t="1622689784928" class="icon" viewBox="0 0 1024 1024" version="1.1" xmlns="http://www.w3.org/2000/svg" p-id="6840" xmlns:xlink="http://www.w3.org/1999/xlink" width="64" height="64"><defs><style type="text/css"></style></defs><path d="M741.717333 596.010667a64 64 0 0 1 55.424 32l37.717334 65.322666a64 64 0 0 1 0 64l-37.717334 65.322667a64 64 0 0 1-55.424 32h-75.434666a64 64 0 0 1-55.424-32L573.141333 757.333333a64 64 0 0 1 0-64l37.717334-65.322666a64 64 0 0 1 55.424-32h75.434666zM341.333333 192v85.333333a64 64 0 0 0 60.245334 63.893334L405.333333 341.333333h213.333334a64 64 0 0 0 63.893333-60.245333L682.666667 277.333333V192h42.666666a64 64 0 0 1 64 64l-0.021333 298.816-158.634667 0.554667a42.666667 42.666667 0 0 0-33.216 16.064l-2.090666 2.858666-79.850667 119.189334a42.666667 42.666667 0 0 0-3.818667 40.469333l1.557334 3.242667L574.741333 853.333333H298.666667a64 64 0 0 1-64-64V256a64 64 0 0 1 64-64h42.666666z m400.384 468.010667h-75.434666L628.565333 725.333333l37.717334 65.322667h75.434666L779.434667 725.333333l-37.717334-65.322666zM704 682.666667a42.666667 42.666667 0 1 1 0 85.333333 42.666667 42.666667 0 0 1 0-85.333333z m-149.333333-149.333334h-192v64h192v-64z m106.666666-128H362.666667v64h298.666666v-64zM576 128a64 64 0 0 1 64 64v42.666667a64 64 0 0 1-64 64h-128a64 64 0 0 1-64-64V192a64 64 0 0 1 64-64h128z m0 64h-128v42.666667h128V192z" p-id="6841"></path></svg>