<?xml version="1.0" standalone="no"?><!DOCTYPE svg PUBLIC "-//W3C//DTD SVG 1.1//EN" "http://www.w3.org/Graphics/SVG/1.1/DTD/svg11.dtd"><svg t="1619593009516" class="icon" viewBox="0 0 1024 1024" version="1.1" xmlns="http://www.w3.org/2000/svg" p-id="6848" xmlns:xlink="http://www.w3.org/1999/xlink" width="200" height="200"><defs><style type="text/css"></style></defs><path d="M617.216 170.666667c114.24 0 206.869333 92.608 206.869333 206.869333 0 72.533333-37.333333 136.32-93.802666 173.269333l168.746666 196.885334A64 64 0 0 1 850.432 853.333333l-101.888 0.021334c11.221333-19.413333 14.293333-42.496 8.746667-64L850.432 789.333333 634.24 537.109333l60.992-39.872a142.869333 142.869333 0 0 0-75.584-262.549333 251.264 251.264 0 0 0-55.424-57.173333A206.976 206.976 0 0 1 617.216 170.666667z m-61.162667 412.757333l140.8 164.266667A64 64 0 0 1 648.213333 853.333333H181.824a64 64 0 0 1-48.597333-105.642666l140.8-164.266667a248.384 248.384 0 0 0 141.013333 43.648c52.330667 0 100.906667-16.106667 141.013333-43.648zM415.04 170.666667c114.24 0 206.869333 92.608 206.869333 206.869333 0 114.24-92.629333 206.869333-206.869333 206.869333-114.261333 0-206.869333-92.629333-206.869333-206.869333C208.170667 263.274667 300.778667 170.666667 415.04 170.666667z" p-id="6849"></path></svg>