<?xml version="1.0" standalone="no"?><!DOCTYPE svg PUBLIC "-//W3C//DTD SVG 1.1//EN" "http://www.w3.org/Graphics/SVG/1.1/DTD/svg11.dtd"><svg t="1620269674190" class="icon" viewBox="0 0 1024 1024" version="1.1" xmlns="http://www.w3.org/2000/svg" p-id="6571" xmlns:xlink="http://www.w3.org/1999/xlink" width="200" height="200"><defs><style type="text/css"></style></defs><path d="M546.581333 893.546667a64 64 0 0 1-90.496 0L109.12 546.56a64 64 0 0 1 0-90.496L334.570667 230.613333a64 64 0 0 1 90.496 0l76.245333 76.266667 76.288-76.266667a64 64 0 0 1 90.496 0L893.546667 456.106667a64 64 0 0 1 0 90.496L546.56 893.546667z m-166.762666-617.642667L154.389333 501.333333 501.333333 848.277333l21.034667-21.034666-76.245333-76.266667 45.248-45.248 76.266666 76.266667 23.786667-23.786667-76.266667-76.266667 45.269334-45.269333 76.245333 76.266667 27.648-27.648-76.245333-76.266667 45.248-45.248 76.266666 76.266667 17.173334-17.194667-100.565334-100.565333-3.349333 3.349333a120.298667 120.298667 0 0 1-170.112 0l-39.808-39.808a64 64 0 0 1 0-90.496l43.136-43.178667-76.245333-76.245333z" p-id="6572"></path></svg>