<svg t="1664516226434" class="icon" viewBox="0 0 1024 1024" version="1.1" xmlns="http://www.w3.org/2000/svg" p-id="11140" width="200" height="200"><path d="M510.976182 332.10277c-89.37761 0-161.827689 72.450079-161.827689 161.827689s72.450079 161.828712 161.827689 161.828712c89.378633 0 161.828712-72.451102 161.828712-161.828712S600.354815 332.10277 510.976182 332.10277zM510.976182 601.816608c-59.578933 0-107.885126-48.323589-107.885126-107.885126 0-59.597353 48.306192-107.885126 107.885126-107.885126 59.579957 0 107.886149 48.287773 107.886149 107.885126C618.862331 553.49302 570.556139 601.816608 510.976182 601.816608z" p-id="11141"></path><path d="M870.594633 493.930459c0-174.124759-123.724883-319.314513-288.051485-352.49317 0.230244-2.345418 0.358157-4.719488 0.358157-7.124258 0-39.71963-32.204469-71.923076-71.924099-71.923076-39.718607 0-71.923076 32.203446-71.923076 71.923076 0 2.40477 0.127913 4.779863 0.358157 7.124258-164.325579 33.177634-288.051485 178.36841-288.051485 352.49317 0 156.066475 99.431593 288.922319 238.405785 338.671373-25.143657 29.334095-79.69611 92.777033-94.558609 108.428501-19.437701 20.510126 63.09092 20.579711 214.366276 20.579711 151.274332 0 233.803977-0.069585 214.365252-20.579711-14.734586-15.517415-68.476581-78.003562-93.901647-107.661022C770.136663 784.226055 870.594633 650.803299 870.594633 493.930459zM492.995669 134.313032c0-9.939373 8.05956-17.980513 17.980513-17.980513s17.980513 8.04114 17.980513 17.980513c0 0.149403-0.00614 0.295735-0.00921 0.444115-5.953595-0.292666-11.945053-0.444115-17.971303-0.444115s-12.017708 0.151449-17.971303 0.444115C493.000785 134.608767 492.995669 134.462434 492.995669 134.313032zM618.1409 898.816906c0 0 1.439792 8.849552-112.713085 8.849552l0.017396-0.069585c-105.426121-0.455371-104.442724-8.779967-104.442724-8.779967l45.706995-50.535977 5.015224 0.409322c18.380626 3.048429 37.232996 4.692882 56.4425 4.840238l0 0.01842 0.200568-0.016373c0.86981 0.00614 1.737574 0.016373 2.608407 0.016373 20.961404 0 41.503253-1.801019 61.48126-5.242398L618.1409 898.816906zM510.976182 799.606347c-168.81687 0-305.674864-136.856971-305.674864-305.674864 0-168.81687 136.857994-305.674864 305.674864-305.674864s305.675888 136.857994 305.675888 305.674864C816.65207 662.749376 679.793052 799.606347 510.976182 799.606347z" p-id="11142"></path></svg>