<svg t="1664515729648" class="icon" viewBox="0 0 1024 1024" version="1.1" xmlns="http://www.w3.org/2000/svg" p-id="10988" width="200" height="200"><path d="M853.333333 446.836364H170.666667v341.333333c0 34.133333 24.824242 62.060606 58.957575 65.163636H791.272727c34.133333 0 62.060606-24.824242 65.163637-58.957575V446.836364z m-446.836363 192.387878v65.163637H297.890909v-65.163637h108.606061z m158.254545 0v65.163637h-105.50303v-65.163637h105.50303z m161.357576 0v65.163637h-105.50303v-65.163637h105.50303z m-319.612121-127.224242v65.163636H297.890909v-65.163636h108.606061z m158.254545 0v65.163636h-105.50303v-65.163636h105.50303z m161.357576 0v65.163636h-105.50303v-65.163636h105.50303zM297.890909 214.109091h-62.060606c-34.133333 0-62.060606 24.824242-65.163636 58.957576v111.709091h682.666666V276.169697c0-34.133333-24.824242-62.060606-58.957575-65.163636h-58.957576v105.50303h-139.636364V214.109091h-161.357576v105.50303H297.890909V214.109091zM698.181818 170.666667h-65.163636v105.50303H698.181818V170.666667z m-300.993939 0h-65.163637v105.50303h65.163637V170.666667z" p-id="10989"></path></svg>