<svg t="1664516395490" class="icon" viewBox="0 0 1024 1024" version="1.1" xmlns="http://www.w3.org/2000/svg" p-id="1011" width="200" height="200"><path d="M513.3 64.2c63.5 0 121.1 25.8 162.7 67.5 41.7 41.7 67.4 99.3 67.4 163 0 63.6-25.8 121.2-67.4 162.9-41.6 41.7-99.2 67.5-162.7 67.5-63.6 0-121.1-25.8-162.7-67.5-41.7-41.7-67.4-99.3-67.4-162.9 0-63.6 25.8-121.2 67.4-163 41.5-41.6 99.1-67.5 162.7-67.5M696.7 559.4v100.4c31.4 6.5 51.5 22.4 63.2 36.6 31.7 38.4 32.5 91.2 30.9 115.8 4.7 5.6 8.1 12.3 9.7 19.7 0.6 2.8 1 5.7 1 8.7 0 24-18.7 43.5-41.8 43.5-12.9 0-24.3-6.2-32-15.8-6.1-7.5-9.9-17.1-9.9-27.7 0-13.9 6.7-25.7 16.4-33.7 1-19-1-52.3-17.5-72.2-10.7-12.9-26.7-19.1-49-19.1-25.3 0-42.9 6.7-53.6 20.4-15.9 20.3-15.2 54.3-13.1 69.8 10.5 7.9 17.8 20.2 17.8 34.7 0 24-18.7 43.5-41.8 43.5-23.1 0-41.8-19.5-41.8-43.5 0-10.3 3.9-19.3 9.6-26.7-2.8-21.1-6.2-74.9 25.3-115.1C587 677.2 610.5 664 640 659V554.9H377.7c-0.9 0-1.8 0.1-2.8 0.2v185.7c23.1 12.9 39 37.9 39 67 0 42.1-32.8 76.3-73.3 76.3s-73.3-34.1-73.3-76.3c0-31.2 18.1-58 43.9-69.8V562.2c-141.1 30.6-247 156.6-247 307.6v90h895.5v-90c0.1-156.6-113.9-286.2-263-310.4" p-id="1012"></path></svg>