<?xml version="1.0" standalone="no"?><!DOCTYPE svg PUBLIC "-//W3C//DTD SVG 1.1//EN" "http://www.w3.org/Graphics/SVG/1.1/DTD/svg11.dtd"><svg t="1623079226477" class="icon" viewBox="0 0 1024 1024" version="1.1" xmlns="http://www.w3.org/2000/svg" p-id="6703" xmlns:xlink="http://www.w3.org/1999/xlink" width="200" height="200"><defs><style type="text/css"></style></defs><path d="M512 149.333333c200.298667 0 362.666667 162.368 362.666667 362.666667s-162.368 362.666667-362.666667 362.666667S149.333333 712.298667 149.333333 512 311.701333 149.333333 512 149.333333z m-167.552 489.706667l36.437333 52.629333c95.701333-66.261333 166.528-66.261333 262.229334 0l36.437333-52.629333c-117.632-81.408-217.472-81.408-335.104 0zM426.666667 362.666667a42.666667 42.666667 0 0 0-42.666667 42.666666v64a42.666667 42.666667 0 1 0 85.333333 0v-64a42.666667 42.666667 0 0 0-42.666666-42.666666z m170.666666 0a42.666667 42.666667 0 0 0-42.666666 42.666666v64a42.666667 42.666667 0 1 0 85.333333 0v-64a42.666667 42.666667 0 0 0-42.666667-42.666666z" p-id="6704"></path></svg>